<svg xmlns="http://www.w3.org/2000/svg" width="1000" height="470" viewBox="0 0 1000 470">
<rect width="100%" height="100%" fill="#fbfaf7"/>
<style>text{font-family:Arial,sans-serif;fill:#29323b}.small{font-size:12px}</style>
<text x="35" y="34" font-size="22" font-weight="bold">gamma1_R: blank prefix, final pair</text>
<text x="35" y="57" font-size="12">Artificial TuBu input · MaleCNS model · descriptive seed means, not behavioural measurements</text>
<rect x="326.364" y="95.0" width="59.091" height="285.0" fill="#e7ebee"/>
<text x="329.36" y="87.0" class="small">primary 0–2 s</text>
<path d="M 90.0 380.000 h 650.0" stroke="#dce0e2"/>
<text x="80.0" y="384.000" text-anchor="end" class="small">0.003486</text>
<path d="M 90.0 308.750 h 650.0" stroke="#dce0e2"/>
<text x="80.0" y="312.750" text-anchor="end" class="small">0.01691</text>
<path d="M 90.0 237.500 h 650.0" stroke="#dce0e2"/>
<text x="80.0" y="241.500" text-anchor="end" class="small">0.03034</text>
<path d="M 90.0 166.250 h 650.0" stroke="#dce0e2"/>
<text x="80.0" y="170.250" text-anchor="end" class="small">0.04377</text>
<path d="M 90.0 95.000 h 650.0" stroke="#dce0e2"/>
<text x="80.0" y="99.000" text-anchor="end" class="small">0.0572</text>
<text x="90.000" y="403.0" text-anchor="middle" class="small">-8</text>
<text x="220.000" y="403.0" text-anchor="middle" class="small">-3.6</text>
<text x="350.000" y="403.0" text-anchor="middle" class="small">0.8</text>
<text x="480.000" y="403.0" text-anchor="middle" class="small">5.2</text>
<text x="610.000" y="403.0" text-anchor="middle" class="small">9.6</text>
<text x="740.000" y="403.0" text-anchor="middle" class="small">14</text>
<polyline points="90.000,292.372 92.955,293.558 95.909,293.329 98.864,293.515 101.818,293.382 104.773,293.635 107.727,293.708 110.682,293.985 113.636,294.093 116.591,294.447 119.545,294.700 122.500,294.758 125.455,295.104 128.409,295.253 131.364,295.537 134.318,295.803 137.273,296.149 140.227,296.408 143.182,296.814 146.136,296.886 149.091,297.135 152.045,297.229 155.000,297.363 157.955,297.660 160.909,297.899 163.864,298.244 166.818,298.448 169.773,298.594 172.727,298.697 175.682,298.963 178.636,299.157 181.591,299.637 184.545,299.878 187.500,299.964 190.455,300.267 193.409,300.568 196.364,300.699 199.318,300.925 202.273,301.039 205.227,301.384 208.182,301.752 211.136,301.882 214.091,301.873 217.045,301.974 220.000,302.321 222.955,302.348 225.909,302.333 228.864,302.250 231.818,302.359 234.773,302.590 237.727,302.587 240.682,302.609 243.636,302.673 246.591,302.737 249.545,302.386 252.500,302.645 255.455,302.502 258.409,302.444 261.364,302.345 264.318,302.577 267.273,302.586 270.227,302.678 273.182,302.850 276.136,302.718 279.091,302.629 282.045,302.528 285.000,302.511 287.955,302.658 290.909,302.653 293.864,302.661 296.818,302.312 299.773,302.131 302.727,302.134 305.682,302.231 308.636,302.286 311.591,302.025 314.545,301.822 317.500,301.745 320.455,301.917 323.409,301.770 326.364,301.680 329.318,301.551 332.273,301.272 335.227,301.284 338.182,301.173 341.136,301.243 344.091,301.202 347.045,301.311 350.000,301.241 352.955,301.213 355.909,300.884 358.864,300.751 361.818,300.592 364.773,300.559 367.727,300.513 370.682,300.427 373.636,300.381 376.591,300.227 379.545,300.308 382.500,300.265 385.455,300.263 388.409,300.384 391.364,300.298 394.318,300.090 397.273,300.078 400.227,299.914 403.182,299.821 406.136,299.632 409.091,299.720 412.045,299.506 415.000,299.405 417.955,299.416 420.909,299.301 423.864,299.477 426.818,299.294 429.773,299.127 432.727,299.044 435.682,298.922 438.636,298.623 441.591,298.108 444.545,298.066 447.500,298.067 450.455,297.971 453.409,297.779 456.364,297.701 459.318,297.843 462.273,297.695 465.227,297.755 468.182,297.608 471.136,297.587 474.091,297.580 477.045,297.298 480.000,297.266 482.955,297.044 485.909,297.072 488.864,296.866 491.818,296.854 494.773,296.610 497.727,296.520 500.682,296.609 503.636,296.394 506.591,295.963 509.545,295.880 512.500,296.033 515.455,295.826 518.409,295.787 521.364,295.692 524.318,295.504 527.273,295.360 530.227,295.300 533.182,295.048 536.136,295.225 539.091,295.263 542.045,295.135 545.000,295.215 547.955,295.172 550.909,295.292 553.864,295.040 556.818,294.982 559.773,294.967 562.727,294.637 565.682,294.572 568.636,294.495 571.591,294.335 574.545,294.315 577.500,293.994 580.455,293.980 583.409,293.826 586.364,293.951 589.318,293.813 592.273,293.664 595.227,293.282 598.182,293.303 601.136,293.422 604.091,293.401 607.045,293.380 610.000,293.319 612.955,293.396 615.909,293.526 618.864,293.393 621.818,293.372 624.773,293.186 627.727,293.196 630.682,293.247 633.636,293.242 636.591,293.126 639.545,293.054 642.500,292.970 645.455,292.955 648.409,292.830 651.364,292.817 654.318,292.447 657.273,292.301 660.227,292.226 663.182,292.029 666.136,291.819 669.091,291.696 672.045,291.479 675.000,291.482 677.955,291.377 680.909,291.300 683.864,291.018 686.818,290.837 689.773,290.740 692.727,290.480 695.682,290.278 698.636,290.244 701.591,290.046 704.545,290.015 707.500,289.928 710.455,289.514 713.409,289.557 716.364,289.478 719.318,289.509 722.273,289.320 725.227,289.325 728.182,289.178 731.136,288.924 734.091,288.989 737.045,288.917 740.000,288.447" fill="none" stroke="#2463a5" stroke-width="2.5"/>
<path d="M 770 113 h 22" stroke="#2463a5" stroke-width="3"/>
<text x="800" y="117" class="small">WT vehicle</text>
<polyline points="90.000,115.495 92.955,116.713 95.909,116.562 98.864,116.550 101.818,116.455 104.773,116.429 107.727,116.293 110.682,116.557 113.636,116.847 116.591,117.136 119.545,117.355 122.500,117.600 125.455,117.582 128.409,117.853 131.364,117.821 134.318,118.091 137.273,118.208 140.227,118.119 143.182,118.140 146.136,118.230 149.091,118.099 152.045,118.175 155.000,118.526 157.955,118.545 160.909,118.633 163.864,118.803 166.818,118.779 169.773,118.783 172.727,118.801 175.682,119.149 178.636,119.496 181.591,119.882 184.545,120.142 187.500,120.166 190.455,120.245 193.409,120.200 196.364,120.004 199.318,119.947 202.273,119.821 205.227,119.778 208.182,120.163 211.136,120.435 214.091,120.569 217.045,120.495 220.000,120.601 222.955,120.650 225.909,120.603 228.864,120.736 231.818,120.868 234.773,121.040 237.727,121.212 240.682,121.286 243.636,121.264 246.591,121.159 249.545,121.178 252.500,121.252 255.455,121.188 258.409,121.194 261.364,121.131 264.318,121.096 267.273,121.170 270.227,121.162 273.182,121.030 276.136,121.243 279.091,121.331 282.045,121.253 285.000,121.258 287.955,121.318 290.909,121.214 293.864,120.985 296.818,120.826 299.773,120.516 302.727,120.470 305.682,120.424 308.636,120.419 311.591,120.401 314.545,120.410 317.500,120.241 320.455,119.934 323.409,120.015 326.364,119.861 329.318,119.846 332.273,119.955 335.227,120.118 338.182,119.743 341.136,119.632 344.091,119.536 347.045,119.398 350.000,119.536 352.955,119.509 355.909,119.537 358.864,119.523 361.818,120.019 364.773,119.989 367.727,119.931 370.682,119.984 373.636,120.052 376.591,119.925 379.545,120.047 382.500,119.934 385.455,120.208 388.409,120.218 391.364,120.077 394.318,120.254 397.273,120.305 400.227,120.122 403.182,120.244 406.136,120.240 409.091,120.236 412.045,120.302 415.000,120.725 417.955,120.747 420.909,120.810 423.864,120.721 426.818,120.536 429.773,120.380 432.727,120.210 435.682,120.138 438.636,119.901 441.591,120.285 444.545,120.309 447.500,120.182 450.455,119.944 453.409,119.652 456.364,119.611 459.318,119.693 462.273,119.665 465.227,119.650 468.182,119.608 471.136,119.773 474.091,119.207 477.045,119.085 480.000,119.114 482.955,118.841 485.909,118.748 488.864,118.752 491.818,118.866 494.773,118.911 497.727,118.845 500.682,119.083 503.636,119.017 506.591,118.634 509.545,118.597 512.500,118.698 515.455,118.619 518.409,118.720 521.364,118.711 524.318,118.590 527.273,118.609 530.227,118.586 533.182,118.577 536.136,118.403 539.091,118.422 542.045,118.165 545.000,118.145 547.955,118.166 550.909,118.407 553.864,118.372 556.818,118.502 559.773,118.246 562.727,118.170 565.682,118.067 568.636,118.005 571.591,118.109 574.545,118.034 577.500,117.848 580.455,117.856 583.409,117.768 586.364,117.736 589.318,117.676 592.273,117.699 595.227,117.860 598.182,117.882 601.136,117.629 604.091,117.804 607.045,117.895 610.000,118.096 612.955,118.310 615.909,118.041 618.864,118.049 621.818,118.001 624.773,117.885 627.727,118.031 630.682,118.052 633.636,118.129 636.591,118.177 639.545,118.129 642.500,118.039 645.455,118.143 648.409,117.903 651.364,117.856 654.318,117.588 657.273,117.322 660.227,117.237 663.182,116.849 666.136,116.973 669.091,116.931 672.045,116.971 675.000,116.860 677.955,116.694 680.909,116.791 683.864,116.708 686.818,116.805 689.773,116.819 692.727,116.736 695.682,116.626 698.636,116.393 701.591,116.422 704.545,116.314 707.500,116.233 710.455,116.084 713.409,116.225 716.364,116.090 719.318,115.928 722.273,115.739 725.227,115.303 728.182,115.352 731.136,115.263 734.091,115.147 737.045,114.866 740.000,114.655" fill="none" stroke="#c64838" stroke-width="2.5"/>
<path d="M 770 143 h 22" stroke="#c64838" stroke-width="3"/>
<text x="800" y="147" class="small">fumin vehicle</text>
<polyline points="90.000,358.938 92.955,359.377 95.909,359.297 98.864,359.259 101.818,359.324 104.773,359.331 107.727,359.339 110.682,359.382 113.636,359.394 116.591,359.416 119.545,359.427 122.500,359.470 125.455,359.439 128.409,359.446 131.364,359.498 134.318,359.606 137.273,359.651 140.227,359.747 143.182,359.852 146.136,359.878 149.091,359.996 152.045,360.051 155.000,360.142 157.955,360.128 160.909,360.207 163.864,360.172 166.818,360.174 169.773,360.232 172.727,360.315 175.682,360.252 178.636,360.284 181.591,360.330 184.545,360.345 187.500,360.282 190.455,360.149 193.409,360.042 196.364,360.030 199.318,359.992 202.273,359.970 205.227,360.026 208.182,359.998 211.136,359.930 214.091,359.898 217.045,359.775 220.000,359.766 222.955,359.799 225.909,359.687 228.864,359.679 231.818,359.631 234.773,359.686 237.727,359.627 240.682,359.671 243.636,359.643 246.591,359.554 249.545,359.496 252.500,359.558 255.455,359.531 258.409,359.428 261.364,359.470 264.318,359.476 267.273,359.363 270.227,359.375 273.182,359.388 276.136,359.353 279.091,359.360 282.045,359.295 285.000,359.262 287.955,359.157 290.909,359.162 293.864,359.161 296.818,359.073 299.773,359.053 302.727,359.034 305.682,359.004 308.636,358.933 311.591,358.915 314.545,358.892 317.500,358.926 320.455,358.887 323.409,358.900 326.364,358.924 329.318,358.947 332.273,358.990 335.227,358.899 338.182,358.824 341.136,358.792 344.091,358.673 347.045,358.622 350.000,358.670 352.955,358.666 355.909,358.616 358.864,358.540 361.818,358.363 364.773,358.357 367.727,358.429 370.682,358.402 373.636,358.385 376.591,358.339 379.545,358.246 382.500,358.150 385.455,358.044 388.409,358.069 391.364,357.948 394.318,357.804 397.273,357.770 400.227,357.685 403.182,357.667 406.136,357.517 409.091,357.409 412.045,357.442 415.000,357.413 417.955,357.286 420.909,357.192 423.864,356.950 426.818,356.968 429.773,356.920 432.727,356.820 435.682,356.701 438.636,356.589 441.591,356.530 444.545,356.523 447.500,356.512 450.455,356.433 453.409,356.438 456.364,356.401 459.318,356.334 462.273,356.232 465.227,356.203 468.182,356.093 471.136,356.117 474.091,355.977 477.045,355.854 480.000,355.748 482.955,355.674 485.909,355.643 488.864,355.647 491.818,355.544 494.773,355.422 497.727,355.409 500.682,355.355 503.636,355.256 506.591,355.220 509.545,355.308 512.500,355.235 515.455,355.220 518.409,355.241 521.364,355.199 524.318,355.210 527.273,355.236 530.227,355.190 533.182,355.186 536.136,355.078 539.091,355.044 542.045,354.979 545.000,354.926 547.955,354.879 550.909,354.806 553.864,354.714 556.818,354.726 559.773,354.671 562.727,354.627 565.682,354.512 568.636,354.398 571.591,354.378 574.545,354.405 577.500,354.442 580.455,354.370 583.409,354.330 586.364,354.347 589.318,354.374 592.273,354.278 595.227,354.285 598.182,354.308 601.136,354.383 604.091,354.399 607.045,354.353 610.000,354.323 612.955,354.300 615.909,354.333 618.864,354.273 621.818,354.276 624.773,354.288 627.727,354.337 630.682,354.313 633.636,354.311 636.591,354.230 639.545,354.254 642.500,354.251 645.455,354.177 648.409,354.242 651.364,354.214 654.318,354.151 657.273,354.140 660.227,354.092 663.182,353.979 666.136,353.964 669.091,353.909 672.045,353.881 675.000,353.883 677.955,353.824 680.909,353.781 683.864,353.744 686.818,353.717 689.773,353.671 692.727,353.650 695.682,353.672 698.636,353.682 701.591,353.657 704.545,353.611 707.500,353.607 710.455,353.505 713.409,353.564 716.364,353.504 719.318,353.568 722.273,353.534 725.227,353.561 728.182,353.517 731.136,353.467 734.091,353.362 737.045,353.315 740.000,353.196" fill="none" stroke="#42997a" stroke-width="2.5"/>
<path d="M 770 173 h 22" stroke="#42997a" stroke-width="3"/>
<text x="800" y="177" class="small">WT release reduction</text>
<polyline points="90.000,292.372 92.955,292.818 95.909,292.751 98.864,292.783 101.818,292.555 104.773,292.449 107.727,292.368 110.682,292.391 113.636,292.373 116.591,292.437 119.545,292.589 122.500,292.704 125.455,292.824 128.409,292.906 131.364,292.953 134.318,292.983 137.273,292.972 140.227,292.977 143.182,292.930 146.136,293.007 149.091,292.939 152.045,292.959 155.000,292.938 157.955,292.932 160.909,292.870 163.864,292.952 166.818,292.999 169.773,293.127 172.727,293.146 175.682,293.166 178.636,293.216 181.591,293.204 184.545,293.233 187.500,293.246 190.455,293.229 193.409,293.273 196.364,293.349 199.318,293.305 202.273,293.365 205.227,293.393 208.182,293.489 211.136,293.553 214.091,293.565 217.045,293.582 220.000,293.521 222.955,293.513 225.909,293.473 228.864,293.439 231.818,293.411 234.773,293.320 237.727,293.302 240.682,293.315 243.636,293.282 246.591,293.213 249.545,293.263 252.500,293.219 255.455,293.171 258.409,293.107 261.364,293.044 264.318,292.961 267.273,292.914 270.227,292.887 273.182,292.784 276.136,292.722 279.091,292.640 282.045,292.569 285.000,292.482 287.955,292.422 290.909,292.399 293.864,292.370 296.818,292.357 299.773,292.287 302.727,292.227 305.682,292.112 308.636,292.131 311.591,292.047 314.545,291.984 317.500,292.024 320.455,291.992 323.409,291.909 326.364,291.877 329.318,291.748 332.273,291.697 335.227,291.625 338.182,291.600 341.136,291.591 344.091,291.473 347.045,291.387 350.000,291.337 352.955,291.247 355.909,291.255 358.864,291.273 361.818,291.151 364.773,291.098 367.727,291.112 370.682,291.053 373.636,291.021 376.591,290.901 379.545,290.740 382.500,290.683 385.455,290.580 388.409,290.509 391.364,290.479 394.318,290.486 397.273,290.467 400.227,290.375 403.182,290.279 406.136,290.096 409.091,290.115 412.045,290.020 415.000,289.967 417.955,289.863 420.909,289.738 423.864,289.692 426.818,289.656 429.773,289.625 432.727,289.610 435.682,289.539 438.636,289.472 441.591,289.396 444.545,289.398 447.500,289.265 450.455,289.216 453.409,289.250 456.364,289.133 459.318,289.033 462.273,288.975 465.227,288.984 468.182,288.998 471.136,288.966 474.091,288.923 477.045,288.850 480.000,288.885 482.955,288.786 485.909,288.755 488.864,288.697 491.818,288.625 494.773,288.563 497.727,288.497 500.682,288.369 503.636,288.309 506.591,288.259 509.545,288.091 512.500,288.114 515.455,288.107 518.409,288.027 521.364,287.953 524.318,287.937 527.273,287.935 530.227,287.779 533.182,287.732 536.136,287.685 539.091,287.608 542.045,287.572 545.000,287.510 547.955,287.547 550.909,287.532 553.864,287.543 556.818,287.446 559.773,287.328 562.727,287.190 565.682,287.095 568.636,287.015 571.591,286.977 574.545,286.918 577.500,286.757 580.455,286.648 583.409,286.601 586.364,286.550 589.318,286.458 592.273,286.402 595.227,286.336 598.182,286.322 601.136,286.287 604.091,286.232 607.045,286.162 610.000,286.102 612.955,286.069 615.909,285.948 618.864,285.889 621.818,285.867 624.773,285.840 627.727,285.741 630.682,285.704 633.636,285.605 636.591,285.611 639.545,285.569 642.500,285.502 645.455,285.353 648.409,285.287 651.364,285.164 654.318,285.213 657.273,285.164 660.227,285.197 663.182,285.137 666.136,285.093 669.091,285.090 672.045,285.036 675.000,284.992 677.955,284.881 680.909,284.802 683.864,284.718 686.818,284.604 689.773,284.604 692.727,284.619 695.682,284.510 698.636,284.485 701.591,284.361 704.545,284.306 707.500,284.229 710.455,284.179 713.409,284.125 716.364,284.158 719.318,284.005 722.273,283.956 725.227,283.892 728.182,283.890 731.136,283.868 734.091,283.820 737.045,283.808 740.000,283.863" fill="none" stroke="#8a55a3" stroke-width="2.5"/>
<path d="M 770 203 h 22" stroke="#8a55a3" stroke-width="3"/>
<text x="800" y="207" class="small">fumin release reduction</text>
<text x="90.0" y="71.0" class="small">µM</text>
<text x="410" y="437" text-anchor="middle" font-size="14">Seconds from test onset</text>
</svg>
